<?xml version="1.0" encoding="UTF-8" standalone="no"?>
<!DOCTYPE svg PUBLIC "-//W3C//DTD SVG 1.1//EN"
 "http://www.w3.org/Graphics/SVG/1.1/DTD/svg11.dtd">
<!-- Generated by graphviz version 2.40.1 (0)
 -->
<!-- Title: %3 Pages: 1 -->
<svg width="879pt" height="231pt"
 viewBox="0.00 0.00 878.64 231.00" xmlns="http://www.w3.org/2000/svg" xmlns:xlink="http://www.w3.org/1999/xlink">
<g id="graph0" class="graph" transform="scale(1 1) rotate(0) translate(4 227)">
<title>%3</title>
<polygon fill="#3f3f3f" stroke="transparent" points="-4,4 -4,-227 874.6356,-227 874.6356,4 -4,4"/>
<text text-anchor="middle" x="435.3178" y="-9.2" font-family="Times,serif" font-size="16.00" fill="#ffffff">Network Map</text>
<!-- R6 -->
<g id="node1" class="node">
<title>R6</title>
<polygon fill="#006699" stroke="#006699" points="94.1356,-99 17.1356,-99 17.1356,-26 94.1356,-26 94.1356,-99"/>
<text text-anchor="middle" x="55.6356" y="-58.8" font-family="Helvetica,sans-Serif" font-size="14.00" fill="#ffffff">R6</text>
</g>
<!-- R2 -->
<g id="node5" class="node">
<title>R2</title>
<polygon fill="#006699" stroke="#006699" points="217.1356,-223 140.1356,-223 140.1356,-150 217.1356,-150 217.1356,-223"/>
<text text-anchor="middle" x="178.6356" y="-182.8" font-family="Helvetica,sans-Serif" font-size="14.00" fill="#ffffff">R2</text>
</g>
<!-- R6&#45;&#45;R2 -->
<g id="edge3" class="edge">
<title>R6&#45;&#45;R2</title>
<path fill="none" stroke="#00ff00" stroke-dasharray="5,2" d="M58,-99.0313C60.241,-110.5162 64.3199,-122.6317 71.6356,-132 88.7008,-153.8531 116.9148,-167.7097 140.0873,-175.9803"/>
<text text-anchor="middle" x="121.6356" y="-120.8" font-family="Courier,monospace" font-size="14.00" fill="#ffffff"> &#160;&#160;&#160;&#160;&#160;&#160;&#160;&#160;&#160;&#160;&#160;</text>
<text text-anchor="middle" x="111.0873" y="-164.7803" font-family="Courier,monospace" font-size="14.00" fill="#ffffff">Eth 0/2</text>
<text text-anchor="middle" x="29" y="-102.8313" font-family="Courier,monospace" font-size="14.00" fill="#ffffff">Eth 0/1</text>
</g>
<!-- R5 -->
<g id="node2" class="node">
<title>R5</title>
<polygon fill="#006699" stroke="#006699" points="278.1356,-99 201.1356,-99 201.1356,-26 278.1356,-26 278.1356,-99"/>
<text text-anchor="middle" x="239.6356" y="-58.8" font-family="Helvetica,sans-Serif" font-size="14.00" fill="#ffffff">R5</text>
</g>
<!-- R4 -->
<g id="node4" class="node">
<title>R4</title>
<polygon fill="#006699" stroke="#006699" points="463.1356,-223 386.1356,-223 386.1356,-150 463.1356,-150 463.1356,-223"/>
<text text-anchor="middle" x="424.6356" y="-182.8" font-family="Helvetica,sans-Serif" font-size="14.00" fill="#ffffff">R4</text>
</g>
<!-- R5&#45;&#45;R4 -->
<g id="edge2" class="edge">
<title>R5&#45;&#45;R4</title>
<path fill="none" stroke="#00ff00" stroke-dasharray="5,2" d="M267.8686,-99.2564C277.9539,-110.7563 289.9778,-122.8238 302.6356,-132 328.0849,-150.4492 360.7727,-164.6367 385.9066,-173.9052"/>
<text text-anchor="middle" x="352.6356" y="-120.8" font-family="Courier,monospace" font-size="14.00" fill="#ffffff"> &#160;&#160;&#160;&#160;&#160;&#160;&#160;&#160;&#160;&#160;&#160;</text>
<text text-anchor="middle" x="356.9066" y="-162.7052" font-family="Courier,monospace" font-size="14.00" fill="#ffffff">Eth 0/1</text>
<text text-anchor="middle" x="238.8686" y="-103.0564" font-family="Courier,monospace" font-size="14.00" fill="#ffffff">Eth 0/1</text>
</g>
<!-- R5&#45;&#45;R2 -->
<g id="edge1" class="edge">
<title>R5&#45;&#45;R2</title>
<path fill="none" stroke="#00ff00" stroke-dasharray="5,2" d="M201.049,-88.9421C192.4358,-96.8819 184.4398,-106.3536 179.6356,-117 175.0693,-127.1193 173.6559,-138.9413 173.7189,-149.9353"/>
<text text-anchor="middle" x="229.6356" y="-120.8" font-family="Courier,monospace" font-size="14.00" fill="#ffffff"> &#160;&#160;&#160;&#160;&#160;&#160;&#160;&#160;&#160;&#160;&#160;</text>
<text text-anchor="middle" x="144.7189" y="-138.7353" font-family="Courier,monospace" font-size="14.00" fill="#ffffff">Eth 0/1</text>
<text text-anchor="middle" x="172.049" y="-77.7421" font-family="Courier,monospace" font-size="14.00" fill="#ffffff">Eth 0/0</text>
</g>
<!-- R3 -->
<g id="node3" class="node">
<title>R3</title>
<polygon fill="#006699" stroke="#006699" points="832.1356,-223 755.1356,-223 755.1356,-150 832.1356,-150 832.1356,-223"/>
<text text-anchor="middle" x="793.6356" y="-182.8" font-family="Helvetica,sans-Serif" font-size="14.00" fill="#ffffff">R3</text>
</g>
<!-- R1 -->
<g id="node6" class="node">
<title>R1</title>
<polygon fill="#006699" stroke="#006699" points="709.1356,-223 632.1356,-223 632.1356,-150 709.1356,-150 709.1356,-223"/>
<text text-anchor="middle" x="670.6356" y="-182.8" font-family="Helvetica,sans-Serif" font-size="14.00" fill="#ffffff">R1</text>
</g>
<!-- SW1 -->
<g id="node7" class="node">
<title>SW1</title>
<polygon fill="#006699" stroke="#006699" points="653.6356,-99 563.6356,-99 563.6356,-26 653.6356,-26 653.6356,-99"/>
<text text-anchor="middle" x="608.6356" y="-58.8" font-family="Helvetica,sans-Serif" font-size="14.00" fill="#ffffff">SW1</text>
</g>
<!-- SW1&#45;&#45;R3 -->
<g id="edge6" class="edge">
<title>SW1&#45;&#45;R3</title>
<path fill="none" stroke="#00ff00" stroke-dasharray="5,2" d="M653.8819,-69.7512C686.288,-76.9581 729.2227,-90.8685 758.6356,-117 768.5331,-125.7933 775.9819,-138.0391 781.4064,-149.8055"/>
<text text-anchor="middle" x="820.6356" y="-120.8" font-family="Courier,monospace" font-size="14.00" fill="#ffffff"> &#160;&#160;&#160;&#160;&#160;&#160;&#160;&#160;&#160;&#160;&#160;</text>
<text text-anchor="middle" x="752.4064" y="-138.6055" font-family="Courier,monospace" font-size="14.00" fill="#ffffff">Eth 0/0</text>
<text text-anchor="middle" x="682.8819" y="-58.5512" font-family="Courier,monospace" font-size="14.00" fill="#ffffff">Eth 0/3</text>
</g>
<!-- SW1&#45;&#45;R4 -->
<g id="edge7" class="edge">
<title>SW1&#45;&#45;R4</title>
<path fill="none" stroke="#00ff00" stroke-dasharray="5,2" d="M565.3639,-99.3775C547.611,-114.384 530.1464,-128.9407 525.6356,-132 506.0128,-145.3088 482.809,-158.0209 463.5935,-167.8153"/>
<text text-anchor="middle" x="593.6356" y="-120.8" font-family="Courier,monospace" font-size="14.00" fill="#ffffff"> &#160;&#160;&#160;&#160;&#160;&#160;&#160;&#160;&#160;&#160;&#160;</text>
<text text-anchor="middle" x="492.5935" y="-156.6153" font-family="Courier,monospace" font-size="14.00" fill="#ffffff">Eth 0/0</text>
<text text-anchor="middle" x="536.3639" y="-103.1775" font-family="Courier,monospace" font-size="14.00" fill="#ffffff">Eth 0/4</text>
</g>
<!-- SW1&#45;&#45;R2 -->
<g id="edge5" class="edge">
<title>SW1&#45;&#45;R2</title>
<path fill="none" stroke="#00ff00" stroke-dasharray="5,2" d="M563.359,-70.5961C524.3045,-78.7495 467.1731,-93.5272 421.6356,-117 412.0725,-121.9294 412.3071,-127.2866 402.6356,-132 341.6526,-161.7202 263.2253,-175.9765 217.1881,-182.2175"/>
<text text-anchor="middle" x="471.6356" y="-120.8" font-family="Courier,monospace" font-size="14.00" fill="#ffffff"> &#160;&#160;&#160;&#160;&#160;&#160;&#160;&#160;&#160;&#160;&#160;</text>
<text text-anchor="middle" x="246.1881" y="-171.0175" font-family="Courier,monospace" font-size="14.00" fill="#ffffff">Eth 0/0</text>
<text text-anchor="middle" x="534.359" y="-59.3961" font-family="Courier,monospace" font-size="14.00" fill="#ffffff">Eth 0/2</text>
</g>
<!-- SW1&#45;&#45;R1 -->
<g id="edge4" class="edge">
<title>SW1&#45;&#45;R1</title>
<path fill="none" stroke="#00ff00" stroke-dasharray="5,2" d="M638.0788,-99.2843C641.9435,-105.0244 645.6067,-111.035 648.6356,-117 653.85,-127.269 658.1372,-139.0192 661.4975,-149.9001"/>
<text text-anchor="middle" x="704.6356" y="-120.8" font-family="Courier,monospace" font-size="14.00" fill="#ffffff"> &#160;&#160;&#160;&#160;&#160;&#160;&#160;&#160;&#160;&#160;&#160;</text>
<text text-anchor="middle" x="632.4975" y="-138.7001" font-family="Courier,monospace" font-size="14.00" fill="#ffffff">Eth 0/0</text>
<text text-anchor="middle" x="609.0788" y="-103.0843" font-family="Courier,monospace" font-size="14.00" fill="#ffffff">Eth 0/1</text>
</g>
</g>
</svg>
